<mxfile host="app.diagrams.net" modified="2024-06-18T09:55:23.573Z" agent="Mozilla/5.0 (Macintosh; Intel Mac OS X 10_15_7) AppleWebKit/537.36 (KHTML, like Gecko) Chrome/125.0.0.0 Safari/537.36" etag="u3urAhdlTsLsMZQZNYNP" version="24.5.5" type="github">
  <diagram name="第 1 页" id="9N8lYaEHGtKo0ZQCZWq-">
    <mxGraphModel dx="1259" dy="707" grid="1" gridSize="10" guides="1" tooltips="1" connect="1" arrows="1" fold="1" page="1" pageScale="1" pageWidth="827" pageHeight="1169" math="1" shadow="0">
      <root>
        <mxCell id="0" />
        <mxCell id="1" parent="0" />
        <mxCell id="7JWZ_qZi7IJrl0iOUyfv-2" value="" style="rounded=0;whiteSpace=wrap;html=1;strokeWidth=0.25;shadow=1;fillColor=#e3a5a1;fontSize=20;" vertex="1" parent="1">
          <mxGeometry x="321" y="80" width="40" height="40" as="geometry" />
        </mxCell>
        <mxCell id="7JWZ_qZi7IJrl0iOUyfv-3" value="" style="rounded=0;whiteSpace=wrap;html=1;strokeWidth=0.25;shadow=1;fillColor=#C5E0B3;fontSize=20;" vertex="1" parent="1">
          <mxGeometry x="390" y="150" width="40" height="40" as="geometry" />
        </mxCell>
        <mxCell id="7JWZ_qZi7IJrl0iOUyfv-4" value="" style="rounded=0;whiteSpace=wrap;html=1;strokeWidth=0.25;shadow=1;fontSize=20;fillColor=#BDD0E9;" vertex="1" parent="1">
          <mxGeometry x="390" y="80" width="40" height="40" as="geometry" />
        </mxCell>
        <mxCell id="7JWZ_qZi7IJrl0iOUyfv-5" value="" style="rounded=0;whiteSpace=wrap;html=1;strokeWidth=0.25;shadow=1;fontSize=20;fillColor=#BDD0E9;" vertex="1" parent="1">
          <mxGeometry x="321" y="150" width="40" height="40" as="geometry" />
        </mxCell>
        <mxCell id="7JWZ_qZi7IJrl0iOUyfv-6" value="" style="rounded=0;whiteSpace=wrap;html=1;strokeWidth=0.25;shadow=1;fontSize=20;fillColor=#BDD0E9;" vertex="1" parent="1">
          <mxGeometry x="390" y="220" width="40" height="40" as="geometry" />
        </mxCell>
        <mxCell id="7JWZ_qZi7IJrl0iOUyfv-7" value="" style="rounded=0;whiteSpace=wrap;html=1;strokeWidth=0.25;shadow=1;fontSize=20;fillColor=#BDD0E9;" vertex="1" parent="1">
          <mxGeometry x="460" y="150" width="40" height="40" as="geometry" />
        </mxCell>
        <mxCell id="7JWZ_qZi7IJrl0iOUyfv-8" value="" style="rounded=0;whiteSpace=wrap;html=1;strokeWidth=0.25;shadow=1;fillColor=#e3a5a1;fontSize=20;" vertex="1" parent="1">
          <mxGeometry x="460" y="80" width="40" height="40" as="geometry" />
        </mxCell>
        <mxCell id="7JWZ_qZi7IJrl0iOUyfv-9" value="" style="rounded=0;whiteSpace=wrap;html=1;strokeWidth=0.25;shadow=1;fillColor=#e3a5a1;fontSize=20;" vertex="1" parent="1">
          <mxGeometry x="321" y="220" width="40" height="40" as="geometry" />
        </mxCell>
        <mxCell id="7JWZ_qZi7IJrl0iOUyfv-10" value="" style="rounded=0;whiteSpace=wrap;html=1;strokeWidth=0.25;shadow=1;fillColor=#e3a5a1;fontSize=20;" vertex="1" parent="1">
          <mxGeometry x="460" y="220" width="40" height="40" as="geometry" />
        </mxCell>
        <mxCell id="7JWZ_qZi7IJrl0iOUyfv-11" value="" style="endArrow=classic;html=1;rounded=0;strokeColor=#538135;strokeWidth=1;" edge="1" parent="1">
          <mxGeometry width="50" height="50" relative="1" as="geometry">
            <mxPoint x="456" y="126" as="sourcePoint" />
            <mxPoint x="436" y="147" as="targetPoint" />
          </mxGeometry>
        </mxCell>
        <mxCell id="7JWZ_qZi7IJrl0iOUyfv-14" value="" style="endArrow=classic;html=1;rounded=0;strokeColor=#538135;strokeWidth=1;" edge="1" parent="1">
          <mxGeometry width="50" height="50" relative="1" as="geometry">
            <mxPoint x="366" y="126" as="sourcePoint" />
            <mxPoint x="386" y="147" as="targetPoint" />
          </mxGeometry>
        </mxCell>
        <mxCell id="7JWZ_qZi7IJrl0iOUyfv-15" value="" style="endArrow=classic;html=1;rounded=0;strokeColor=#538135;strokeWidth=1;" edge="1" parent="1">
          <mxGeometry width="50" height="50" relative="1" as="geometry">
            <mxPoint x="366" y="215" as="sourcePoint" />
            <mxPoint x="386" y="196" as="targetPoint" />
          </mxGeometry>
        </mxCell>
        <mxCell id="7JWZ_qZi7IJrl0iOUyfv-16" value="" style="endArrow=classic;html=1;rounded=0;strokeColor=#538135;strokeWidth=1;" edge="1" parent="1">
          <mxGeometry width="50" height="50" relative="1" as="geometry">
            <mxPoint x="454" y="215" as="sourcePoint" />
            <mxPoint x="434" y="196" as="targetPoint" />
          </mxGeometry>
        </mxCell>
        <mxCell id="7JWZ_qZi7IJrl0iOUyfv-17" value="" style="endArrow=classic;html=1;rounded=0;strokeColor=#538135;strokeWidth=1;" edge="1" parent="1">
          <mxGeometry width="50" height="50" relative="1" as="geometry">
            <mxPoint x="410" y="126" as="sourcePoint" />
            <mxPoint x="410" y="146" as="targetPoint" />
          </mxGeometry>
        </mxCell>
        <mxCell id="7JWZ_qZi7IJrl0iOUyfv-18" value="" style="endArrow=classic;html=1;rounded=0;strokeColor=#538135;strokeWidth=1;" edge="1" parent="1">
          <mxGeometry width="50" height="50" relative="1" as="geometry">
            <mxPoint x="409.75" y="216" as="sourcePoint" />
            <mxPoint x="409.75" y="196" as="targetPoint" />
          </mxGeometry>
        </mxCell>
        <mxCell id="7JWZ_qZi7IJrl0iOUyfv-19" value="" style="endArrow=classic;html=1;rounded=0;strokeColor=#538135;strokeWidth=1;" edge="1" parent="1">
          <mxGeometry width="50" height="50" relative="1" as="geometry">
            <mxPoint x="365" y="169.75" as="sourcePoint" />
            <mxPoint x="385" y="169.75" as="targetPoint" />
          </mxGeometry>
        </mxCell>
        <mxCell id="7JWZ_qZi7IJrl0iOUyfv-20" value="" style="endArrow=classic;html=1;rounded=0;strokeColor=#538135;strokeWidth=1;" edge="1" parent="1">
          <mxGeometry width="50" height="50" relative="1" as="geometry">
            <mxPoint x="455" y="169.75" as="sourcePoint" />
            <mxPoint x="435" y="170" as="targetPoint" />
          </mxGeometry>
        </mxCell>
        <mxCell id="7JWZ_qZi7IJrl0iOUyfv-22" value="&lt;font style=&quot;font-size: 24px;&quot;&gt;$$a$$&lt;/font&gt;" style="rounded=0;whiteSpace=wrap;html=1;strokeWidth=0.25;shadow=1;fillColor=none;fontSize=20;strokeColor=none;" vertex="1" parent="1">
          <mxGeometry x="660" y="120" width="40" height="40" as="geometry" />
        </mxCell>
        <mxCell id="7JWZ_qZi7IJrl0iOUyfv-23" value="&lt;font style=&quot;font-size: 24px;&quot;&gt;$$b$$&lt;/font&gt;" style="rounded=0;whiteSpace=wrap;html=1;strokeWidth=0.25;shadow=1;fillColor=none;fontSize=20;strokeColor=none;" vertex="1" parent="1">
          <mxGeometry x="700" y="120" width="40" height="40" as="geometry" />
        </mxCell>
        <mxCell id="7JWZ_qZi7IJrl0iOUyfv-24" value="&lt;font style=&quot;font-size: 24px;&quot;&gt;$$c$$&lt;/font&gt;" style="rounded=0;whiteSpace=wrap;html=1;strokeWidth=0.25;shadow=1;fillColor=none;fontSize=20;strokeColor=none;" vertex="1" parent="1">
          <mxGeometry x="700" y="160" width="40" height="40" as="geometry" />
        </mxCell>
        <mxCell id="7JWZ_qZi7IJrl0iOUyfv-25" value="&lt;font style=&quot;font-size: 24px;&quot;&gt;$$a$$&lt;/font&gt;" style="rounded=0;whiteSpace=wrap;html=1;strokeWidth=0.25;shadow=1;fillColor=none;fontSize=20;strokeColor=none;" vertex="1" parent="1">
          <mxGeometry x="740" y="120" width="40" height="40" as="geometry" />
        </mxCell>
        <mxCell id="7JWZ_qZi7IJrl0iOUyfv-26" value="&lt;font style=&quot;font-size: 24px;&quot;&gt;$$b$$&lt;/font&gt;" style="rounded=0;whiteSpace=wrap;html=1;strokeWidth=0.25;shadow=1;fillColor=none;fontSize=20;strokeColor=none;" vertex="1" parent="1">
          <mxGeometry x="660" y="160" width="40" height="40" as="geometry" />
        </mxCell>
        <mxCell id="7JWZ_qZi7IJrl0iOUyfv-27" value="&lt;font style=&quot;font-size: 24px;&quot;&gt;$$b$$&lt;/font&gt;" style="rounded=0;whiteSpace=wrap;html=1;strokeWidth=0.25;shadow=1;fillColor=none;fontSize=20;strokeColor=none;" vertex="1" parent="1">
          <mxGeometry x="740" y="160" width="40" height="40" as="geometry" />
        </mxCell>
        <mxCell id="7JWZ_qZi7IJrl0iOUyfv-28" value="&lt;font style=&quot;font-size: 24px;&quot;&gt;$$b$$&lt;/font&gt;" style="rounded=0;whiteSpace=wrap;html=1;strokeWidth=0.25;shadow=1;fillColor=none;fontSize=20;strokeColor=none;" vertex="1" parent="1">
          <mxGeometry x="700" y="200" width="40" height="40" as="geometry" />
        </mxCell>
        <mxCell id="7JWZ_qZi7IJrl0iOUyfv-29" value="&lt;font style=&quot;font-size: 24px;&quot;&gt;$$a$$&lt;/font&gt;" style="rounded=0;whiteSpace=wrap;html=1;strokeWidth=0.25;shadow=1;fillColor=none;fontSize=20;strokeColor=none;" vertex="1" parent="1">
          <mxGeometry x="660" y="200" width="40" height="40" as="geometry" />
        </mxCell>
        <mxCell id="7JWZ_qZi7IJrl0iOUyfv-30" value="&lt;font style=&quot;font-size: 24px;&quot;&gt;$$a$$&lt;/font&gt;" style="rounded=0;whiteSpace=wrap;html=1;strokeWidth=0.25;shadow=1;fillColor=none;fontSize=20;strokeColor=none;" vertex="1" parent="1">
          <mxGeometry x="740" y="200" width="40" height="40" as="geometry" />
        </mxCell>
        <mxCell id="7JWZ_qZi7IJrl0iOUyfv-31" value="" style="shape=partialRectangle;whiteSpace=wrap;html=1;bottom=1;right=1;left=1;top=0;fillColor=none;routingCenterX=-0.5;rotation=90;" vertex="1" parent="1">
          <mxGeometry x="600" y="175" width="120" height="10" as="geometry" />
        </mxCell>
        <mxCell id="7JWZ_qZi7IJrl0iOUyfv-32" value="" style="shape=partialRectangle;whiteSpace=wrap;html=1;bottom=1;right=1;left=1;top=0;fillColor=none;routingCenterX=-0.5;rotation=-90;" vertex="1" parent="1">
          <mxGeometry x="720" y="175" width="120" height="10" as="geometry" />
        </mxCell>
        <mxCell id="7JWZ_qZi7IJrl0iOUyfv-33" value="&lt;font face=&quot;Verdana&quot; style=&quot;font-size: 20px;&quot;&gt;Symmetry of Weights&lt;/font&gt;" style="text;html=1;align=center;verticalAlign=middle;whiteSpace=wrap;rounded=0;" vertex="1" parent="1">
          <mxGeometry x="294" y="263" width="240" height="41" as="geometry" />
        </mxCell>
        <mxCell id="7JWZ_qZi7IJrl0iOUyfv-34" value="&lt;font face=&quot;Verdana&quot; style=&quot;font-size: 20px;&quot;&gt;Radially Symmetric Weight Matrix&lt;/font&gt;" style="text;html=1;align=center;verticalAlign=middle;whiteSpace=wrap;rounded=0;" vertex="1" parent="1">
          <mxGeometry x="600" y="260" width="240" height="41" as="geometry" />
        </mxCell>
        <mxCell id="7JWZ_qZi7IJrl0iOUyfv-35" value="" style="endArrow=none;dashed=1;html=1;rounded=0;strokeColor=#9673A6;strokeWidth=2;" edge="1" parent="1">
          <mxGeometry width="50" height="50" relative="1" as="geometry">
            <mxPoint x="580" y="80" as="sourcePoint" />
            <mxPoint x="580" y="300" as="targetPoint" />
          </mxGeometry>
        </mxCell>
        <mxCell id="7JWZ_qZi7IJrl0iOUyfv-36" value="" style="html=1;shadow=0;dashed=0;align=center;verticalAlign=middle;shape=mxgraph.arrows2.arrow;dy=0.67;dx=24.63;notch=0;" vertex="1" parent="1">
          <mxGeometry x="540" y="165" width="80" height="30" as="geometry" />
        </mxCell>
      </root>
    </mxGraphModel>
  </diagram>
</mxfile>
